/* XPM */
static char *collectable1707623526[] = {
/* columns rows colors chars-per-pixel */
"32 32 171 2 ",
"   c #000000",
".  c #0B0601",
"X  c #0D0802",
"o  c #0B0C0B",
"O  c #150C03",
"+  c #1C1105",
"@  c #161614",
"#  c #1F1E1C",
"$  c #241506",
"%  c #2B1A09",
"&  c #331E09",
"*  c #201F1D",
"=  c #3B230B",
"-  c #232220",
";  c #292826",
":  c #2E2D2B",
">  c #3A3937",
",  c #3D3C38",
"<  c #41260C",
"1  c #462A0D",
"2  c #4A2D0F",
"3  c #51300F",
"4  c #5A3511",
"5  c #603A13",
"6  c #683E14",
"7  c #674215",
"8  c #6D4315",
"9  c #704417",
"0  c #754918",
"q  c #7D4B18",
"w  c #7E511A",
"e  c #49463F",
"r  c #474643",
"t  c #4E4D49",
"y  c #54524C",
"u  c #5A5955",
"i  c #5D5C58",
"p  c #6E6A5E",
"a  c #676762",
"s  c #716D62",
"d  c #787469",
"f  c #7C7668",
"g  c #7E7B75",
"h  c #844F19",
"j  c #86531A",
"k  c #8B581D",
"l  c #90551B",
"z  c #94591C",
"x  c #9C5E1F",
"c  c #96611F",
"v  c #9F6621",
"b  c #A36520",
"n  c #A56D22",
"m  c #AE6E23",
"M  c #B46B22",
"N  c #AC7324",
"B  c #B27424",
"V  c #BC7525",
"C  c #BD7E28",
"Z  c #C17425",
"A  c #C57E28",
"S  c #827D75",
"D  c #C38329",
"F  c #CB872A",
"G  c #D4832A",
"H  c #D08B2D",
"J  c #D98C2D",
"K  c #D5952E",
"L  c #D9942D",
"P  c #DD9330",
"I  c #DD9A30",
"U  c #EF8E2F",
"Y  c #F08D2F",
"T  c #E8972F",
"R  c #EE952F",
"E  c #F0942F",
"W  c #E79730",
"Q  c #F29C32",
"!  c #E5A534",
"~  c #EDA234",
"^  c #EBAB34",
"/  c #F1A134",
"(  c #F4AC36",
")  c #F4AB38",
"_  c #EDB137",
"`  c #F5B437",
"'  c #F5B638",
"]  c #F6BB3A",
"[  c #F8BF3A",
"{  c #F7C33C",
"}  c #F9C43C",
"|  c #FACB3F",
" . c #8A8478",
".. c #998F76",
"X. c #9A937A",
"o. c #F3AD4C",
"O. c #F4B846",
"+. c #EFA051",
"@. c #F0A252",
"#. c #F6BF5B",
"$. c #F5BB64",
"%. c #F3B576",
"&. c #F7C341",
"*. c #FACC44",
"=. c #F7C74A",
"-. c #F9CD49",
";. c #FACD52",
":. c #F8CD5C",
">. c #F9D053",
",. c #FAD25C",
"<. c #F8CA6C",
"1. c #F6D264",
"2. c #FAD365",
"3. c #F6D56E",
"4. c #FAD669",
"5. c #EACE7B",
"6. c #F7C976",
"7. c #EFD076",
"8. c #F5D474",
"9. c #F9D772",
"0. c #FAD976",
"q. c #F5D47B",
"w. c #8E8B86",
"e. c #9B9585",
"r. c #9E9B94",
"t. c #A49A83",
"y. c #AFA58B",
"u. c #B7AA87",
"i. c #B9AB85",
"p. c #B6AF9D",
"a. c #ADA8A2",
"s. c #BDB9B0",
"d. c #C9B98B",
"f. c #D2BF87",
"g. c #C0B597",
"h. c #C7B996",
"j. c #C4BCA7",
"k. c #D7C38C",
"l. c #D8C797",
"z. c #D0C29C",
"x. c #E4CC82",
"c. c #E3CB89",
"v. c #F8C983",
"b. c #F9D985",
"n. c #FADE8A",
"m. c #F5C998",
"M. c #EBD494",
"N. c #F5D997",
"B. c #FADC93",
"V. c #FBE29C",
"C. c #D5CAAE",
"Z. c #E6D5A9",
"A. c #F2DEAB",
"S. c #E3D7B8",
"D. c #F9DBB5",
"F. c #F9DCBE",
"G. c #FBE6A7",
"H. c #F0E0AF",
"J. c #FBE7AC",
"K. c #FBE9B9",
"L. c #CECAC1",
"P. c #DED7CF",
"I. c #DDD9D0",
"U. c #EFE2C2",
"Y. c #EFE5CC",
"T. c #FBECC3",
"R. c #FCEDCC",
"E. c #FBEFDB",
"W. c #FCF0E0",
"Q. c #FEF7ED",
"!. c #FEF8EC",
/* pixels */
"                O = 6 z V Y +.%.m.F.W.P.a.g t #                 ",
"                . = 6 z Z U +.%.m.F.W.I.a.g t *                 ",
"                . = 6 z Z Y +.%.m.F.W.I.a.S t *                 ",
"      . O + % & 1 7 k N F Q o.$.v.N.K.S.g...d y > : - @ o       ",
"      . + & 1 4 9 k n C L ( o.$.<.v.V.M.f.u.X.S a t , ; @       ",
"      O & 3 9 l n V F K ! ] O.=.:.2.9.7.c.f.h.p.r.g p , *       ",
"      + < 6 l M G J W ^ ' { } *.=.-.;.1.q.M.Z.S.L.a.g y ;       ",
"+ + + = 5 j M G R / ( ` { | | | *.| *.;.3.n.G.T.Y.j.e.s e # # # ",
"2 2 2 5 w v C P / ( ` ] { | | | | | *.-.2.0.V.J.A.z.u. .p t t t ",
"h h h z n C K ! ( ' [ [ } | | | | | | *.>.2.4.0.b.l.d.i.t.w.w.w.",
"m M M V D K ! _ ] [ } } } | | | | | | *.-.>.,.2.8.5.k.l.h.s.s.s.",
"U U U R / ( ' { | | | | | | | | | | | | | *.| | -.4.n.G.R.!.!.!.",
"U U Y R / ( ' } | | | | | | | | | | | | | | | | -.4.n.J.R.Q.Q.Q.",
"U U Y R Q ( ' { | | | | | | | | | | | | | | | | -.4.n.J.R.Q.Q.Q.",
"U U U R / ) ' { | | | | | | | | | | | | | | | | -.4.n.J.R.Q.Q.Q.",
"U Y U R / ) ' { | | *.| | | | | | | | | | | | | -.4.n.J.R.Q.Q.Q.",
"U U Y R / ) ' { | | | | | | | | | | | | | | | | -.4.n.J.R.!.!.!.",
"U U U R / ` ' { | | | | | | | | | | | | | | | | -.4.n.J.R.!.!.!.",
"U Y U R ~ ( ' } | | | | | | | | | | | | | | | | -.4.n.G.R.Q.!.!.",
"U U U R / ( ' { | | | | | | | | | | | | | | | | *.4.n.G.R.!.Q.Q.",
"U U U R / ( ' { | | | | | | | | | | | | | | | | *.4.n.J.R.Q.Q.!.",
"Z Z Z A H I ! ' { { } } | | | | | | | *.-.-.>.,.4.q.c.l.C.L.L.L.",
"z z z b B D K ! ' ' [ { } | | *.| | | *.>.,.4.0.q.x.k.i.y.r.r.r.",
"4 4 4 6 j n D T ( ( ` [ { | | | | | | -.2.0.n.V.A.l.u...g i i i ",
"% % % 1 8 k B J Q / ( ' { | | | | | *.-.4.b.V.K.U.z.e.f y : : : ",
"      + 1 8 z Z J T ~ _ ] } } *.*.*.-.,.0.B.H.Y.I.a.g u :       ",
"      O & 4 q x B A K I ^ ] &.=.;.:.4.8.x.k.l.j.a.w.a r ;       ",
"      X % = 3 6 q c N D I ) O.#.<.q.n.M.k.i.X. .g i r : @       ",
"      . O $ & < 3 0 z B H / o.$.6.B.J.Z.h.t. .p r > ; # o       ",
"        . . . . + 1 0 x Z E @.%.m.D.E.P.a. .y ; o o o o         ",
"                X = 6 z Z Y +.%.m.F.E.P.a.g t #                 ",
"                X = 6 z Z Y +.%.m.F.W.P.a.g t *                 "
};
