/* XPM */
static char *ship_up1707458497[] = {
/* columns rows colors chars-per-pixel */
"32 32 175 2 ",
"   c #000000",
".  c #0A0302",
"X  c #0F0904",
"o  c #0A0A0B",
"O  c #140205",
"+  c #1D0A02",
"@  c #170108",
"#  c #1D000B",
"$  c #170B08",
"%  c #180C0A",
"&  c #16110B",
"*  c #1A140B",
"=  c #1C180F",
"-  c #010514",
";  c #110F10",
":  c #0B111D",
">  c #141414",
",  c #1D1612",
"<  c #1C1814",
"1  c #1E1E1D",
"2  c #270603",
"3  c #230E01",
"4  c #26010E",
"5  c #3A0907",
"6  c #271103",
"7  c #2B1203",
"8  c #28160C",
"9  c #221A0E",
"0  c #2B1E0E",
"q  c #341602",
"w  c #260010",
"e  c #340113",
"r  c #3C0016",
"t  c #251712",
"y  c #251F1D",
"u  c #2C1D1C",
"i  c #301C15",
"p  c #361B1A",
"a  c #3A1A1A",
"s  c #292117",
"d  c #3B281A",
"f  c #010A2B",
"g  c #0E192F",
"h  c #101721",
"j  c #1F1F21",
"k  c #030C35",
"l  c #010A3C",
"z  c #05123F",
"x  c #211F20",
"c  c #1F2120",
"v  c #16213F",
"b  c #202020",
"n  c #3C2B2B",
"m  c #272E3E",
"M  c #490A06",
"N  c #550A03",
"B  c #451B01",
"V  c #481807",
"C  c #571807",
"Z  c #44001B",
"A  c #4E001E",
"S  c #50001F",
"D  c #4C1716",
"F  c #4C1718",
"G  c #43191A",
"H  c #531615",
"J  c #591514",
"K  c #640607",
"L  c #730E0E",
"P  c #7C0D0C",
"I  c #601706",
"U  c #791F0C",
"Y  c #6F0F10",
"T  c #671110",
"R  c #4C230D",
"E  c #5E2200",
"W  c #442F1C",
"Q  c #46321F",
"!  c #672802",
"~  c #6B2800",
"^  c #742D01",
"/  c #682F11",
"(  c #752B12",
")  c #79391A",
"_  c #4F0020",
"`  c #500120",
"'  c #543A24",
"]  c #453434",
"[  c #503C3D",
"{  c #5A4426",
"}  c #70542F",
"|  c #785A37",
" . c #05174B",
".. c #10265F",
"X. c #363D59",
"o. c #030F61",
"O. c #041064",
"+. c #051C6A",
"@. c #051D73",
"#. c #062178",
"$. c #3D4C66",
"%. c #3B506D",
"&. c #830B0C",
"*. c #8D0909",
"=. c #980606",
"-. c #930909",
";. c #931407",
":. c #A40506",
">. c #B60101",
",. c #BC0001",
"<. c #B91907",
"1. c #99270E",
"2. c #853401",
"3. c #953800",
"4. c #B3270E",
"5. c #B03512",
"6. c #C71D09",
"7. c #CA230B",
"8. c #CA2A0E",
"9. c #CC2E11",
"0. c #CE3412",
"q. c #CD3A15",
"w. c #D13C16",
"e. c #8D491B",
"r. c #A7440A",
"t. c #B44300",
"y. c #AA5B20",
"u. c #836133",
"i. c #9C7236",
"p. c #A76123",
"a. c #C44C00",
"s. c #CF5001",
"d. c #D95400",
"f. c #CA4A19",
"g. c #D24216",
"h. c #D34619",
"j. c #D54B1A",
"k. c #CB581F",
"l. c #D7551D",
"z. c #E55900",
"x. c #EC5C01",
"c. c #F15E00",
"v. c #F46000",
"b. c #D95B20",
"n. c #DD6824",
"m. c #9C7043",
"M. c #AA7C4B",
"N. c #B68852",
"B. c #C89655",
"V. c #D19A5B",
"C. c #D9A55C",
"Z. c #F4B35B",
"A. c #E7AC67",
"S. c #ECB26B",
"D. c #F7B86D",
"F. c #F6BB71",
"G. c #FBC176",
"H. c #12368E",
"J. c #082DAF",
"K. c #0930BB",
"L. c #1948BC",
"P. c #365AA4",
"I. c #546E93",
"U. c #5F7CA4",
"Y. c #194CC6",
"T. c #1044CE",
"R. c #1C52D6",
"E. c #4A73C3",
"W. c #4D7DDF",
"Q. c #6F91BF",
"!. c #5481DC",
"~. c #4C80E3",
"^. c #5788E5",
"/. c #5889E6",
"(. c #81A8DF",
/* pixels */
"                          .     . O O .                         ",
"                    + C U 1.4.9.7.7.7.7.<.;.N .                 ",
"                V 5.g.w.q.q.0.0.9.8.7.7.7.6.6.<.N               ",
"            . ( f.j.h.g.w.w.q.0.0.9.9.8.7.7.7.6.6.N             ",
"      h %.$.R k.l.j.j.j.h.g.w.w.q.w.0.8.9.8.8.7.7.;.2           ",
"  g P.W.~.X.e.n.n.b.l.j.j.h.h.g.q.5.1.U I V M 5 2 @ .           ",
"- L.T.T.T.y p.y.e./ R V V 5 e e e r Z Z A A A r @ A w           ",
"    - f k . 4 @ e Z Z A _ _ A A A A A A A A A e O Z w           ",
"          O Z # w _ _ _ A ` A _ A S S S A A A 4 O r @           ",
"          . Z # % r A _ S A S A A A S A A A A X ' .             ",
"            @ O N.W 4 A S A _ ` S S S S S Z @ N.m.              ",
"              $ V.D.M.t r A A ` A S S Z 4 W V.A.'               ",
"                % S.F.S.N.d . . % i | B.S.F.F.Q                 ",
"                  & } F.G.G.G.G.G.G.G.G.G.N.s                   ",
"                      . & > = 9 = = = , o                       ",
"                    y j c c b c c j j s 1 1 .                   ",
"            . . q . x c j u P :.:.Y u x x b o B .               ",
"          E z.x.^ ; c a *.D u -.=.p H =.a x o ! v.x.~           ",
"        . d.z.x.B > a P a 1 P >.,.*.x a P p ; q c.x.x.+         ",
"      . 2.z.x.x.q > F L s J >.&.Y ,.L H *.H > 3 c.x.x.d..       ",
"        s.z.x.x.7 < G ,.,.,.,.,.>.>.,.-.=.H < 3 v.x.x.z.3.      ",
"        t.z.x.x.B < p P :.,.G b b a 6.:.P a > 3 v.c.x.z.~       ",
"          a.x.v.^ ; c G -.Y b s x u T -.a x ; 7 v.c.x.z.3       ",
"          o 0 0 * . 1 c b a L -.-.P u b x < . X 0 0 0           ",
"          * i.B.] 6 6 6 8 = < > < , = 8 6 7 $ { Z.Z.u.X         ",
"            * & Q.(.Q.X.m ] ) r.r.) ] m $.U.I.{ C.} %           ",
"              : E.^.^.^.^.^.^.^.^.^.^./././.!.v o               ",
"              z Y.R.R.R.R.R.R.H...Y.R.R.R.R.R.L.                ",
"               .J.K.K.K.K.K.K.@..  .@.#.#.#.#.+.  .             ",
"               .o.O.o.O.O.O.O.l     O n [ [ n o                 ",
"                5 K K K K K M .         . .                     ",
"                                                                "
};
