/* XPM */
static char *Safeimagekit_resized_img1707623277[] = {
/* columns rows colors chars-per-pixel */
"32 32 69 1 ",
"  c gray13",
". c #232323",
"X c #242223",
"o c #222423",
"O c gray14",
"+ c #272624",
"@ c #272526",
"# c #282725",
"$ c #282627",
"% c #292927",
"& c #2C2827",
"* c #272528",
"= c #2B2A28",
"- c #2E2A29",
"; c #312B2B",
": c #332A2B",
"> c #302C2B",
", c #332E2B",
"< c #322C2C",
"1 c #342F2C",
"2 c #372F2D",
"3 c #392F2E",
"4 c #36312E",
"5 c #38302E",
"6 c #39312F",
"7 c #382F30",
"8 c #3B3331",
"9 c #3E3432",
"0 c #3F3534",
"q c #3E3435",
"w c #413535",
"e c #403634",
"r c #433737",
"t c #433836",
"y c #443937",
"u c #463B39",
"i c #473C3A",
"p c #493B38",
"a c #493B3B",
"s c #4A3A3A",
"d c #4A3C39",
"f c #4A3C3B",
"g c #4E3F3C",
"h c #51423D",
"j c #50423F",
"k c #51423F",
"l c #52433E",
"z c #514340",
"x c #524340",
"c c #544240",
"v c #534441",
"b c #594743",
"n c #594841",
"m c #5A4844",
"M c #5B4844",
"N c #5F4C46",
"B c #5F4E46",
"V c #604B46",
"C c #604D47",
"Z c #604D49",
"A c #6A534D",
"S c #6B534F",
"D c #6C534E",
"F c #6B544C",
"G c #6B544E",
"H c #6C554F",
"J c #775C53",
"K c #775C55",
"L c #785B55",
/* pixels */
"KKKB55ZKKKKKKKJKKB>5BJKKKB43CKKK",
"GGGm11mGGGGGGGGSSm,4mGSGSb44bFGG",
"xxxu--skxxxxxxxzks>&svlkks-$ulkk",
"ssa9%%9afttwusffue&%9fsyw4+=9asa",
"uss9%%9ssq<-eaaas9%#esse>.o%essa",
"9993%+59w7=+4999e5##5595% X%5ee9",
"$-%$.o$&+++.%%%%%$..%&&+..XX$%%%",
"4>$$>55>++;55,5535555>$$,5555434",
"Zk;;kCCk;>kCCCCCCBBBCk>:hCCCCCCC",
"Hb88mHGm>,mFSSSGHGGGDm,4bFSHGGFD",
"kkrrgckp-&skxxxckvllkd&&dklkkkkv",
"usasdas8%%easfsdsssssw%%wewwysas",
"sassasae%%5gddddasussq$%ee,>waaa",
"99e99995#%3e8w8e9e9w93$%,3%+596e",
"%%%%&=%$..#%$%%$==%-&%..$+Xo$%&%",
"5555445555553;$+;1443349555>+...",
"ZBBBCZZZCZCZBk;;xNBBNBCCCCCk> X ",
"SFSGFFFHGGGHFm;4bSFSFSSSSGGM>.%%",
"kkkjklkllvllku--ulkkkxklkklu&%5e",
"assppawetasas9%%wssssugdsaa9&%9p",
"aaaase>>waass9%%8sssussaddde%%es",
"99eee5##499995%$5qeee899ww85%+59",
"%%%%%.XX$%=%%%Xo%%%%%$%%$%%+..+%",
"334;$$>454545555555:$@;334555555",
"BCBx-<kBBZCCCCCCNBBk;-kBCZZBCCCC",
"HFGb<4kSGGSGGGGGSFSm,4mGFSHDSSSS",
"lxxs&>alkllkkllkkxls--slkklxllkk",
"sfs9%%eaasgaassuwwu8%&8yewusaaaa",
"ssg5%&epasasfsfw<;w9-$9y<<9sgdds",
"w8e5%+585qe99991%$34$.55%+3q5ew8",
"%%##..&%=%%==%=.O %%..+.Oo.==+=%",
".X . ...O   O . .+   ...+ ....+ "
};
