/* XPM */
static char *ship_right1707458435[] = {
/* columns rows colors chars-per-pixel */
"32 32 186 2 ",
"   c #000000",
".  c #0A0303",
"X  c #0B0904",
"o  c #00030B",
"O  c #04080B",
"+  c #0D0D0D",
"@  c #140302",
"#  c #1C0203",
"$  c #140A04",
"%  c #1B0B03",
"&  c #170908",
"*  c #120D09",
"=  c #1C140B",
"-  c #090C16",
";  c #1E081D",
":  c #131313",
">  c #1C1C1C",
",  c #220D03",
"<  c #270608",
"1  c #25010C",
"2  c #2B040E",
"3  c #380606",
"4  c #2A1607",
"5  c #351501",
"6  c #3B1604",
"7  c #2D0112",
"8  c #330113",
"9  c #3C0017",
"0  c #3E0019",
"q  c #2C1E11",
"w  c #371110",
"e  c #2E2717",
"r  c #362313",
"t  c #392A19",
"y  c #010721",
"u  c #061228",
"i  c #11132C",
"p  c #0A183C",
"a  c #17103C",
"s  c #1F2120",
"d  c #13213C",
"f  c #202020",
"g  c #21212C",
"h  c #212C3E",
"j  c #470604",
"k  c #5D0508",
"l  c #451805",
"z  c #4C1C02",
"x  c #5A1904",
"c  c #44011A",
"v  c #4E001E",
"b  c #650A06",
"n  c #6C0609",
"m  c #730609",
"M  c #780609",
"N  c #681107",
"B  c #781609",
"V  c #7B1D09",
"C  c #542002",
"Z  c #5C2402",
"A  c #49341C",
"S  c #632602",
"D  c #6C2C07",
"F  c #762705",
"G  c #7B2F03",
"H  c #73380E",
"J  c #653413",
"K  c #4F0020",
"L  c #533921",
"P  c #633F27",
"I  c #64421F",
"U  c #5B462B",
"Y  c #6C492A",
"T  c #714F2C",
"R  c #6D5030",
"E  c #785937",
"W  c #0E175A",
"Q  c #31384B",
"!  c #2F3954",
"~  c #081E66",
"^  c #071D77",
"/  c #253A64",
"(  c #3C5170",
")  c #950609",
"_  c #881109",
"`  c #9C1F0B",
"'  c #A7060B",
"]  c #AB070B",
"[  c #A3080B",
"{  c #A61405",
"}  c #862909",
"|  c #9B2D0C",
" . c #853301",
".. c #9D3A03",
"X. c #903311",
"o. c #B2210C",
"O. c #A13D02",
"+. c #AC3412",
"@. c #BE3511",
"#. c #C51A09",
"$. c #C91E0B",
"%. c #C7210B",
"&. c #CA240C",
"*. c #CB2A0E",
"=. c #CC2E10",
"-. c #CE3412",
";. c #D03715",
":. c #D03C15",
">. c #8D4218",
",. c #AB4202",
"<. c #B84603",
"1. c #AA4819",
"2. c #855E37",
"3. c #8B693C",
"4. c #9C6839",
"5. c #A86121",
"6. c #A06E3D",
"7. c #C54B00",
"8. c #C84B07",
"9. c #D24F00",
"0. c #D45203",
"q. c #DD5301",
"w. c #DD5409",
"e. c #D14316",
"r. c #D24519",
"t. c #D44B1A",
"y. c #D6501C",
"u. c #D9571E",
"i. c #E25501",
"p. c #E45900",
"a. c #ED5B02",
"s. c #EE5906",
"d. c #F15E00",
"f. c #F45D0A",
"g. c #F66102",
"h. c #FC620C",
"j. c #DA5E22",
"k. c #CE6523",
"l. c #DD6925",
"z. c #E1782A",
"x. c #8D7147",
"c. c #A47746",
"v. c #B77B45",
"b. c #B4834D",
"n. c #BC8A53",
"m. c #CA8A4D",
"M. c #C9944D",
"N. c #CC985B",
"B. c #DC9453",
"V. c #DC9B59",
"C. c #EC9F59",
"Z. c #DFA95F",
"A. c #EAA45E",
"S. c #F4A65E",
"D. c #F2A85F",
"F. c #F2B25B",
"G. c #DDA665",
"H. c #F4A560",
"J. c #F5AC63",
"K. c #EFB56B",
"L. c #F5B166",
"P. c #F6B26A",
"I. c #F8B56B",
"U. c #F4B86F",
"Y. c #F9BA6D",
"T. c #FABA70",
"R. c #082188",
"E. c #082290",
"W. c #0834AF",
"Q. c #103CA7",
"!. c #395584",
"~. c #1841AA",
"^. c #224AA6",
"/. c #4C6792",
"(. c #486BAA",
"). c #5473A2",
"_. c #0B3BC3",
"`. c #0D44CE",
"'. c #0C43D1",
"]. c #1E55D6",
"[. c #225AD9",
"{. c #366ADE",
"}. c #3C70E0",
"|. c #416FCD",
" X c #4373E1",
".X c #5888E5",
/* pixels */
"                            .                                   ",
"                  . @ 3 l x N N N b j @                         ",
"              6 } @.-.-.=.=.*.&.&.%.%.#.{ j .                   ",
"          % X.r.e.e.e.:.;.;.-.=.*.*.&.%.$.#.b .                 ",
"        . 1.u.y.t.t.r.r.:.:.:.-.-.=.=.*.&.%.$.w ( ).)./.O       ",
"      X J l.l.j.u.y.t.t.t.r.+.| } } V V } ` o.B i p u           ",
"      X 5.z.z.k.>.6 , 2 8 c 7 3.E 8 9 t N.G.2.& 7 .             ",
"        $ < 8 c c   2 K K 8 A U.E 2 & U.T.T.K.    .             ",
"        K K K K 8 r & v 2 L I.I.N.4 c.n.R Y.Y.U                 ",
"        1 v K v 1 2.Y $ c.L.J.I.K.I.I.n.R I.U.b.                ",
"          0 v v . A.J.J.J.J.L.L.J.P.I.I.I.I.P.t                 ",
"          . 7 7 P H.J.J.J.J.J.J.J.J.L.J.J.P.b.X                 ",
"              A B.H.S.S.H.S.J.D.J.J.J.V.T r +                   ",
"              . q v.C.S.S.S.S.S.H.H.H.J.V.L                     ",
"                    = Y 4.v.C.A.B.m.6.L $                       ",
"                        e x.E E x.U X                           ",
"            O > > > $ C S C 5 r J D G G %                       ",
"            + f f : 5 7.q.q.i.<.x ..s.i.F                       ",
"            + f f * l q.i.i.i.i. .5 s.s.,.X                     ",
"            : f f % Z G i.p.p.p.9.6  .O.7.6                     ",
"            + f f % <.S ,.p.a.p.a.p.0.<.Z 4 X X                 ",
"            + f f % 8.0.z 0.d.d.d.a.g.0.H M.F.M.A X             ",
"            O > s % w.g.8.% S ,.i.g.g.7.I Z.Y.K.3.X             ",
"                  & <.h.h.g.f.f.w. .C , 4 l = = X               ",
"                    S h.h.h.h.h.h.h.h.h.h.D .                   ",
"                  - (.(.!.! g - : g Q !.).h   .                 ",
"                - ^.{.{.}.}. X X|./ d |..X.X.X/ o   . @         ",
"            o ~ _._.'.`.'.'.Q.p u ~.].].[.^.- # j _ ' ] n .     ",
"          y ^ E.R.^ W a ; < < @     o W.~ 3 [ ' ] ' ' ) j .     ",
"          & m ) [ ] ] ] ' ] ] n       . k ] ] [ M 3 .           ",
"          . < k m M m M m n b #         @ 3 # .                 ",
"                                                                "
};
