/* XPM */
static char *ship_left1707458518[] = {
/* columns rows colors chars-per-pixel */
"32 32 170 2 ",
"   c #000000",
".  c #0A0401",
"X  c #0F0A06",
"o  c #010109",
"O  c #0A0509",
"+  c #0B0B0C",
"@  c #110303",
"#  c #1E0301",
"$  c #1C0E02",
"%  c #17030C",
"&  c #1D010B",
"*  c #15100D",
"=  c #000212",
"-  c #090714",
";  c #141212",
":  c #1C1917",
">  c #1C1B1B",
",  c #260607",
"<  c #220E01",
"1  c #280E01",
"2  c #22000D",
"3  c #29030B",
"4  c #360505",
"5  c #2B1202",
"6  c #22140C",
"7  c #321204",
"8  c #250311",
"9  c #2C0011",
"0  c #3C0016",
"q  c #261B1B",
"w  c #2F2118",
"e  c #352516",
"r  c #3B261B",
"t  c #3C2C1B",
"y  c #060725",
"u  c #111427",
"i  c #202020",
"p  c #222A3D",
"a  c #490807",
"s  c #590A05",
"d  c #4A1904",
"f  c #42011A",
"g  c #4D001F",
"h  c #660506",
"j  c #770906",
"k  c #681709",
"l  c #731909",
"z  c #7E1C0A",
"x  c #4C230D",
"c  c #582206",
"v  c #452017",
"b  c #4B341D",
"n  c #6F2D05",
"m  c #6A340F",
"M  c #7D3201",
"N  c #632B14",
"B  c #6A3813",
"V  c #49382A",
"C  c #523C24",
"Z  c #4E3636",
"A  c #6F4E2F",
"S  c #704E2B",
"D  c #644F30",
"F  c #795835",
"G  c #020C47",
"H  c #041857",
"J  c #242E51",
"K  c #092469",
"L  c #14327A",
"P  c #35405E",
"I  c #314B7E",
"U  c #395177",
"Y  c #4B4857",
"T  c #414F69",
"R  c #84070A",
"E  c #8D060A",
"W  c #960508",
"Q  c #95090C",
"!  c #801D0A",
"~  c #931B0A",
"^  c #A6070B",
"/  c #B11A09",
"(  c #BC1D09",
")  c #93230D",
"_  c #963702",
"`  c #9D3B02",
"'  c #893015",
"]  c #A4250D",
"[  c #A33D01",
"{  c #AD3F02",
"}  c #AB3213",
"|  c #B73513",
" . c #C41F0B",
".. c #CA240C",
"X. c #CB2A0E",
"o. c #CD2E10",
"O. c #CD3312",
"+. c #CF3C15",
"@. c #D13C15",
"#. c #A44100",
"$. c #AC4200",
"%. c #B44302",
"&. c #AE4116",
"*. c #875A33",
"=. c #866134",
"-. c #97693B",
";. c #A36D3E",
":. c #C34602",
">. c #C64C03",
",. c #D14B02",
"<. c #CC5004",
"1. c #D25105",
"2. c #DC5402",
"3. c #CE4117",
"4. c #C84719",
"5. c #D24218",
"6. c #D3491A",
"7. c #E25501",
"8. c #ED5604",
"9. c #EA5901",
"0. c #E95B0A",
"q. c #F15C02",
"w. c #F25B08",
"e. c #FC620C",
"r. c #997445",
"t. c #9E7F50",
"y. c #A57544",
"u. c #B58547",
"i. c #AD8955",
"p. c #C48F49",
"a. c #D18B4D",
"s. c #C48F53",
"d. c #CD8D50",
"f. c #D3995B",
"g. c #D79858",
"h. c #E79E59",
"j. c #D7A45B",
"k. c #E6A45E",
"l. c #EAA65F",
"z. c #F3A55C",
"x. c #F4A95E",
"c. c #F4B35C",
"v. c #F5AC62",
"b. c #F5B065",
"n. c #F8B066",
"m. c #F6B269",
"M. c #F8B469",
"N. c #092988",
"B. c #0826AE",
"V. c #0834AF",
"C. c #072AB2",
"Z. c #082DB5",
"A. c #0A2FBB",
"S. c #0A32B6",
"D. c #0832BE",
"F. c #1F449C",
"G. c #2C57B6",
"H. c #0C3AC6",
"J. c #0E41CE",
"K. c #0F46D1",
"L. c #134BD6",
"P. c #1C55DA",
"I. c #3965C6",
"U. c #2C63D8",
"Y. c #366ADE",
"T. c #547BC0",
"R. c #4876D6",
"E. c #487AE2",
"W. c #5384E4",
"Q. c #5C8EE7",
/* pixels */
"                                                                ",
"                    X d l z z z l k s , .                       ",
"              . 7 | +.+.@.O.O.O.o....... ./ j .                 ",
"            . c 4.6.6.3.5.@.+.O.O.O.o.X....... .s .             ",
"      o = = - v N ' &.4.4.6.+.@.+.+.O.o.o.X.X...( a .           ",
"      o o G K B.C.H.H.V.N.K G u r ' } | +.o.o.o.X.~ #           ",
"          8 & w C V J L F.G.I.R.E.Q.T.U p q l ) ] ] 1           ",
"            O y.M.m.s.A % t t.F F C O 8 % O 8 f 0 2 .           ",
"            t f.n.k.t f.t s.M.M.M.M.f.8 2 & g g g 0 @           ",
"            b h.v.l.F n.v.m.m.n.M.m.b.r.b t f g g 3             ",
"            . y.v.n.n.v.v.v.v.v.b.b.m.m.m.g.6 f 9 .             ",
"            . C g.z.z.x.z.v.v.v.b.b.v.v.v.n.g.                  ",
"                ;.z.z.z.z.z.x.v.x.x.x.v.b.k.e                   ",
"                . b a.h.z.z.z.z.z.z.l.d.S X                     ",
"                    . X b *.-.-.F w                             ",
"                    . $ C i.t.=.D t . . O + + o                 ",
"                  . { 8.%.7 ` :.:.,.7.[ * > i >                 ",
"                  1 8.8.[ 1 #.2.2.2.2.[ + > i >                 ",
"                . ` w.8.8.[ < <.7.7.2.{ + : i >                 ",
"                . w.w.w.w.w._ c 9.9.9.$.. > i >                 ",
"                ! <.1.2.>.< %.e.9.e.q.n 7 : i i                 ",
"              . #.q.q.M $ n #.<.2.9.#.c n : i ;                 ",
"              . #.7.<.m p.c.x.u.b 5 c 1.c ; ;                   ",
"                x 0.1.B r.j.j.=.m 0.e.<.5                       ",
"                  P Y Z r 6 $ x B Y Y T p o                     ",
"                  U.U.Y.Y.E.E.E.E.W.W.W.I                       ",
"                  N.J.H.J.K.K.L.L.L.P.P.L                       ",
"              . 2 y B.C.C.C.Z.Z.A.D.D.S.H                       ",
"              h ^ ^ ^ ^ W j h 4 4 3 3 a 4                       ",
"            . , j Q Q Q Q Q Q Q E R R h #                       ",
"                                                                ",
"                                                                "
};
