/* XPM */
static char *ba81277313034547d36f7413b236eb37hWQx9az43QntARCf[] = {
/* columns rows colors chars-per-pixel */
"32 32 178 2 ",
"   c #000000",
".  c #0B0402",
"X  c #0E0B06",
"o  c #060709",
"O  c #0D0D0C",
"+  c #130503",
"@  c #190401",
"#  c #190703",
"$  c #15030F",
"%  c #130E0A",
"&  c #1E160D",
"*  c #0A0D12",
"=  c #080C1A",
"-  c #160C18",
";  c #141414",
":  c #1E1C18",
">  c #2B0402",
",  c #220E02",
"<  c #220508",
"1  c #37070C",
"2  c #271407",
"3  c #361601",
"4  c #3C1604",
"5  c #3E1900",
"6  c #2E0111",
"7  c #2B1D13",
"8  c #281B16",
"9  c #2C2417",
"0  c #382616",
"q  c #040A21",
"w  c #180A24",
"e  c #0F1628",
"r  c #1A1E29",
"t  c #03103A",
"y  c #161D30",
"u  c #1B2024",
"i  c #282725",
"p  c #212936",
"a  c #3A3739",
"s  c #420203",
"d  c #540407",
"f  c #471B00",
"g  c #4A1D00",
"h  c #511F00",
"j  c #4B011C",
"k  c #491D1A",
"l  c #7A0607",
"z  c #720B07",
"x  c #661D0D",
"c  c #48220B",
"v  c #5C2302",
"b  c #562308",
"n  c #612502",
"m  c #6F2A00",
"M  c #632B0A",
"N  c #762906",
"B  c #7A3001",
"V  c #463320",
"C  c #533E25",
"Z  c #5B3F27",
"A  c #5A452A",
"S  c #60492C",
"D  c #6C4A2A",
"F  c #78572A",
"G  c #6B4E30",
"H  c #695232",
"J  c #785431",
"K  c #141243",
"L  c #0B1858",
"P  c #162858",
"I  c #2E3E5D",
"U  c #12317A",
"Y  c #44434B",
"T  c #676767",
"R  c #797978",
"E  c #970608",
"W  c #901607",
"Q  c #A10709",
"!  c #A81B0A",
"~  c #8A3501",
"^  c #913904",
"/  c #9C3B05",
"(  c #A32C0E",
")  c #B7220C",
"_  c #A43D00",
"`  c #A43112",
"'  c #C51D0A",
"]  c #C7210B",
"[  c #CA260D",
"{  c #C7290C",
"}  c #CC2B0E",
"|  c #CE2F11",
" . c #C33713",
".. c #CE3311",
"X. c #CC3914",
"o. c #D03C15",
"O. c #9C501E",
"+. c #A74100",
"@. c #B44600",
"#. c #BA4001",
"$. c #BD4A00",
"%. c #815F32",
"&. c #8F652B",
"*. c #8C653A",
"=. c #93653A",
"-. c #97693A",
";. c #C04902",
":. c #CC4E03",
">. c #D14F04",
",. c #CC5100",
"<. c #D45204",
"1. c #DB5502",
"2. c #D75409",
"3. c #C34419",
"4. c #D34418",
"5. c #D54B1A",
"6. c #D6541E",
"7. c #D8571E",
"8. c #E05601",
"9. c #EB5603",
"0. c #E45902",
"q. c #EB5B01",
"w. c #E55A09",
"e. c #EA5908",
"r. c #F25C05",
"t. c #DD6523",
"y. c #986B41",
"u. c #9D7843",
"i. c #A37E49",
"p. c #B57E48",
"a. c #BA854F",
"s. c #BC9055",
"d. c #C58A4F",
"f. c #CF974C",
"g. c #CC9155",
"h. c #D99859",
"j. c #DBA05C",
"k. c #E6A25E",
"l. c #EAA35D",
"z. c #F1A75E",
"x. c #F5B45B",
"c. c #DAA464",
"v. c #EEAC64",
"b. c #F5AC63",
"n. c #E3B16C",
"m. c #EFB069",
"M. c #F7BB65",
"N. c #F6B169",
"B. c #F8B46B",
"V. c #F9B96F",
"C. c #ECB771",
"Z. c #F3B970",
"A. c #FABD75",
"S. c #FDC57A",
"D. c #173C94",
"F. c #0E3BAE",
"G. c #1C429A",
"H. c #224CAE",
"J. c #617898",
"K. c #627EA3",
"L. c #1349CC",
"P. c #174DD3",
"I. c #1D53D4",
"U. c #2557CD",
"Y. c #2256D0",
"T. c #2158D9",
"R. c #547BC6",
"E. c #5B87D8",
"W. c #5E8BE0",
"Q. c #618FE4",
"!. c #6392E8",
"~. c #818281",
"^. c gray54",
"/. c #9F9F9F",
"(. c gray82",
"). c #DDDEDD",
"_. c #E5E5E5",
"`. c #E6E7E9",
/* pixels */
"                                                                ",
"                  . @ @ .   .                                   ",
"          + x `  .......} { ) ! W z @                           ",
"        4 3.4.4.4.o.X.....| } [ [ ] ' ! >                       ",
"      , 6.6.5.5.4.4.o.o.o.....| } [ [ ] ' 1                     ",
"    . O.t.t.7.5.5.5.4.4.o.X.( N x k 8 %   ; * * *   o o         ",
"      < 6 $ + . . X . . = P U G.H.U.U.Y.I.I.I.I.P.L.L.F.U q     ",
"    6 j 1 0 -.z.b.b.b.b.J 6 < =.l.d.=.D V 7                     ",
"  . 6   p.b.b.l.-.b.b.h.0 0 k.b.b.D b.b.b.h.                    ",
"      . h.b.b.k.Z b.b.h.y.v.b.b.b.& b.b.b.d..                   ",
"      . *.N.N.b.g.N.N.N.N.b.N.N.N.a.N.N.N.J                     ",
"        0 j.B.B.B.B.B.B.B.B.B.B.B.B.B.B.c.X                     ",
"        . G v.V.V.V.V.V.V.V.V.V.V.Z.V.m.C                       ",
"            V Z.A.A.A.c.s.s.c.A.A.A.n.A .                       ",
"              % S n.S.S.S.S.S.S.C.H &                           ",
"              O ; O 9 8 % X 9 & ; ; o                           ",
"              . #.v 7 C S S C 2 / _                             ",
"      f $.,.3 9.9.9.9.9.9.9.9.9.9.9.$.g 1.+.3                   ",
"    m 0.q.@.4 9.9.9.9.9.9.9.9.9.9.9.:.g ,.r.1.v                 ",
"  , @.0.q.^ n r.r.r.r.r.r.r.r.r.r.r.1.v $.r.q.$.@               ",
"  h 8.q.q.B ~ r.r.r.r.r.r.r.r.r.r.r.e.m $.r.q.0.~               ",
"  h 8.q.q.+.n r.1.<.1.1.1.1.1.1.,.e.e.N $.r.q.q._ .             ",
"  + _ q.q.q.f :.<.0.r.r.r.r.r.r.1.1.q.m ;.r.q.q.v               ",
"    @ f f g 3 3 :.0.q.q.q.q.q.q.1.:.w.v 5 f f f .               ",
"    . &.x.M.i.M w.1.<.>.:.:.<.<.1.w.2., F x.f.0                 ",
"      X %.M.s.: a 2 b / w.2.^ c 7 Y J.K.i u.%                   ",
"        o u ; E.!.!.Q.W.E.E.R.I p r p I y                       ",
"        = G.T.T.T.T.T.T.D.e ~.`.`.`.`.`.^.O                     ",
"        q L K - $ $ w L t   _.`._._._.`.(.                      ",
"        < E Q Q Q Q Q E s o T _.).).)._.R o                     ",
"          > z l l l l d .     i R /.~.a                         ",
"                                                                "
};
