/* XPM */
static char *fcdf8d70889d4080fa8c14d03664663e2t6BoVpXaNq3xbUO[] = {
/* columns rows colors chars-per-pixel */
"16 16 10 1 ",
"  c None",
". c #222222",
"X c #EE8E2E",
"o c #FACB3E",
"O c #5698CC",
"+ c #72D6CE",
"@ c #E2B694",
"# c #FCCBA3",
"$ c #CAE6F5",
"% c #FDF7ED",
/* pixels */
"                ",
"                ",
"                ",
"                ",
"           .... ",
"     ..... .oo. ",
"   ..%%......o. ",
"  .%%%$.XXoooo. ",
"  .%%$$######.  ",
"  .%$$$#OO##O.  ",
"  .$$$$#OO##O.  ",
"  .$..##@@##@.  ",
"  .. .#######.  ",
"  .  .++...++.  ",
"     ..+. ..+.  ",
"      ...  ...  "
};
